<?xml version="1.0" standalone="no"?>
<!DOCTYPE svg PUBLIC "-//W3C//DTD SVG 1.1//EN" "http://www.w3.org/Graphics/SVG/1.1/DTD/svg11.dtd">
<svg width="100%" height="100%" viewBox="0 0 48 48" version="1.1" xmlns="http://www.w3.org/2000/svg" xmlns:xlink="http://www.w3.org/1999/xlink" xml:space="preserve" style="fill-rule:evenodd;clip-rule:evenodd;stroke-linejoin:round;stroke-miterlimit:1.41421;">
    <g>
        <path d="M48,46C48,47.104 47.104,48 46,48L2,48C0.896,48 0,47.104 0,46L0,2C0,0.896 0.896,0 2,0L46,0C47.104,0 48,0.896 48,2L48,46Z" style="fill:rgb(30,179,253);fill-rule:nonzero;"/>
        <clipPath id="tag1">
            <path d="M0.0230039,48.0347L47.9336,-0.0105278L-0.0473661,-0.0105278L0.0230039,48.0347Z"/>
        </clipPath>
        <g clip-path="url(#tag1)">
            <path d="M48,46C48,47.104 47.104,48 46,48L2,48C0.896,48 0,47.104 0,46L0,2C0,0.896 0.896,0 2,0L46,0C47.104,0 48,0.896 48,2L48,46Z" style="fill:rgb(166,0,1);fill-rule:nonzero;"/>
        </g>
        <path d="M48,46C48,47.104 47.104,48 46,48L2,48C0.896,48 0,47.104 0,46L0,2C0,0.896 0.896,0 2,0L46,0C47.104,0 48,0.896 48,2L48,46Z" style="fill:url(#tag2);fill-rule:nonzero;"/>
        <path d="M40.849,34.304L20.782,15.753C21.698,13.23 20.975,10.292 18.77,8.517C16.874,6.988 14.305,6.658 12.077,7.654C11.991,7.693 11.932,7.771 11.921,7.863C11.91,7.955 11.948,8.047 12.019,8.105L16.425,11.652C16.493,11.709 16.505,11.814 16.45,11.882L13.464,15.591C13.407,15.659 13.304,15.669 13.232,15.612L8.83,12.063C8.756,12.004 8.66,11.987 8.572,12.02C8.484,12.051 8.422,12.125 8.402,12.217C7.9,14.61 8.771,17.045 10.666,18.572C12.363,19.939 14.545,20.301 16.496,19.746L36.129,39.232C37.49,40.535 39.654,40.49 40.957,39.127C42.259,37.769 42.212,35.606 40.849,34.304ZM39.677,37.993C38.997,38.649 37.919,38.634 37.263,37.952C36.609,37.276 36.626,36.196 37.304,35.54C37.984,34.884 39.062,34.905 39.718,35.587C40.374,36.259 40.353,37.341 39.677,37.993Z" style="fill:white;fill-rule:nonzero;"/>
        <g>
            <path d="M28.47,21.085L34.804,14.753L34.804,14.755L37.276,13.558L40.503,9.056L39.226,7.778L34.724,11.003L33.522,13.479L27.144,19.86L28.47,21.085Z" style="fill:rgb(240,171,0);fill-rule:nonzero;"/>
            <path d="M20.118,25.177C19.436,24.669 18.481,24.697 17.87,25.312L17.405,25.775C17.696,26.55 17.536,27.463 16.913,28.084C16.29,28.709 15.384,28.867 14.61,28.572L5.837,37.342C5.228,37.953 5.171,38.904 5.659,39.586L15.036,30.205C15.306,29.935 15.745,29.935 16.016,30.205C16.286,30.48 16.286,30.918 16.016,31.187L6.62,40.583L7.7,41.661L17.096,32.265C17.367,31.995 17.805,31.995 18.076,32.265C18.346,32.538 18.346,32.972 18.076,33.247L8.697,42.622C9.379,43.11 10.328,43.056 10.939,42.444L19.707,33.673C19.414,32.9 19.574,31.995 20.201,31.368C20.822,30.749 21.73,30.585 22.506,30.876L22.969,30.413C23.602,29.782 23.619,28.774 23.057,28.097L20.118,25.177Z" style="fill:rgb(240,171,0);fill-rule:nonzero;"/>
        </g>
    </g>
    <defs>
        <radialGradient id="tag2" cx="0" cy="0" r="1" gradientUnits="userSpaceOnUse" gradientTransform="matrix(31.8337,0,0,31.8337,17.8335,11.3335)"><stop offset="0%" style="stop-color:white;stop-opacity:0.4"/><stop offset="100%" style="stop-color:rgb(76,76,76);stop-opacity:0.4"/></radialGradient>
    </defs>
</svg>
